
        <svg xmlns="http://www.w3.org/2000/svg" xmlns:xlink="http://www.w3.org/1999/xlink" version="1.1" width="2366.412213740458" 
        height="3152.671755725191" viewBox="0 0 2366.412213740458 3152.671755725191">
			
			<g transform="scale(7.633587786259542) translate(10, 10)">
				<defs id="SvgjsDefs1638"></defs><g id="SvgjsG1639" featureKey="rootContainer" transform="matrix(1,0,0,1,0,0)" fill="#264e86"><path xmlns="http://www.w3.org/2000/svg" fill-rule="evenodd" d="M5,65 L145,0 L285, 65 L145, 10 z M5,313 L145,393 L285,308 L145, 383 z"></path></g><g id="SvgjsG1640" featureKey="symbolFeature-0" transform="matrix(2.041666666666667,0,0,2.041666666666667,84,88.04817962646484)" fill="#0074e4"><title xmlns="http://www.w3.org/2000/svg">47 -Highway- (Outline)</title><desc xmlns="http://www.w3.org/2000/svg">Created with Sketch.</desc><g xmlns="http://www.w3.org/2000/svg" stroke="none" stroke-width="1" fill="none" fill-rule="evenodd"><g transform="translate(-840.000000, -820.000000)" fill="#0074e4"><g transform="translate(840.000000, 820.000000)"><path d="M2,58.956 L58,58.956 L58,2.956 L2,2.956 L2,58.956 Z M59,60.956 L1,60.956 C0.447,60.956 0,60.509 0,59.956 L0,1.956 C0,1.403 0.447,0.956 1,0.956 L59,0.956 C59.553,0.956 60,1.403 60,1.956 L60,59.956 C60,60.509 59.553,60.956 59,60.956 L59,60.956 Z"></path><path d="M8,22.956 L52,22.956 L52,20.956 L8,20.956 L8,22.956 Z M53,24.956 L7,24.956 C6.447,24.956 6,24.509 6,23.956 L6,19.956 C6,19.403 6.447,18.956 7,18.956 L53,18.956 C53.553,18.956 54,19.403 54,19.956 L54,23.956 C54,24.509 53.553,24.956 53,24.956 L53,24.956 Z"></path><path d="M46,28.956 L48,28.956 L48,24.956 L46,24.956 L46,28.956 Z M49,30.956 L45,30.956 C44.447,30.956 44,30.509 44,29.956 L44,23.956 C44,23.403 44.447,22.956 45,22.956 L49,22.956 C49.553,22.956 50,23.403 50,23.956 L50,29.956 C50,30.509 49.553,30.956 49,30.956 L49,30.956 Z"></path><path d="M12,28.956 L14,28.956 L14,24.956 L12,24.956 L12,28.956 Z M15,30.956 L11,30.956 C10.447,30.956 10,30.509 10,29.956 L10,23.956 C10,23.403 10.447,22.956 11,22.956 L15,22.956 C15.553,22.956 16,23.403 16,23.956 L16,29.956 C16,30.509 15.553,30.956 15,30.956 L15,30.956 Z"></path><path d="M21.1387,20.956 C21.1047,20.956 21.0697,20.954 21.0347,20.951 C20.4857,20.894 20.0857,20.402 20.1427,19.853 L22.0047,1.853 C22.0627,1.304 22.5577,0.909 23.1027,0.961 C23.6527,1.019 24.0517,1.51 23.9947,2.059 L22.1327,20.059 C22.0787,20.573 21.6447,20.956 21.1387,20.956"></path><path d="M27,20.956 C26.447,20.956 26,20.509 26,19.956 L26,1.956 C26,1.403 26.447,0.956 27,0.956 C27.553,0.956 28,1.403 28,1.956 L28,19.956 C28,20.509 27.553,20.956 27,20.956"></path><path d="M17.001,60.956 C16.967,60.956 16.932,60.954 16.897,60.951 C16.348,60.894 15.948,60.402 16.005,59.853 L19.73,23.853 C19.787,23.304 20.281,22.912 20.827,22.961 C21.377,23.018 21.776,23.51 21.72,24.059 L17.995,60.059 C17.941,60.573 17.507,60.956 17.001,60.956"></path><path d="M27,60.956 C26.447,60.956 26,60.509 26,59.956 L26,23.956 C26,23.403 26.447,22.956 27,22.956 C27.553,22.956 28,23.403 28,23.956 L28,59.956 C28,60.509 27.553,60.956 27,60.956"></path><path d="M38.8613,20.956 C38.3553,20.956 37.9213,20.573 37.8673,20.059 L36.0053,2.059 C35.9483,1.51 36.3473,1.019 36.8973,0.961 C37.4333,0.911 37.9373,1.304 37.9953,1.853 L39.8573,19.853 C39.9143,20.402 39.5143,20.894 38.9653,20.951 C38.9303,20.954 38.8953,20.956 38.8613,20.956"></path><path d="M33,20.956 C32.447,20.956 32,20.509 32,19.956 L32,1.956 C32,1.403 32.447,0.956 33,0.956 C33.553,0.956 34,1.403 34,1.956 L34,19.956 C34,20.509 33.553,20.956 33,20.956"></path><path d="M42.999,60.956 C42.493,60.956 42.059,60.573 42.005,60.059 L38.28,24.059 C38.224,23.51 38.623,23.018 39.173,22.961 C39.71,22.914 40.213,23.304 40.27,23.853 L43.995,59.853 C44.052,60.402 43.652,60.894 43.103,60.951 C43.068,60.954 43.033,60.956 42.999,60.956"></path><path d="M33,60.956 C32.447,60.956 32,60.509 32,59.956 L32,23.956 C32,23.403 32.447,22.956 33,22.956 C33.553,22.956 34,23.403 34,23.956 L34,59.956 C34,60.509 33.553,60.956 33,60.956"></path></g></g></g></g><g id="SvgjsG1641" featureKey="nameFeature-0" transform="matrix(1.2815979406435298,0,0,1.2815979406435298,-1.5379174371052078,217.62082837895878)" fill="#264e86"><path d="M1.2 40 l0 -4.48 l0.84 -0.56 l0 -17.92 l-0.84 -0.56 l0 -4.48 l6.72 0 l0 4.48 l-0.84 0.56 l0 6.44 l6.16 0 l0 -6.44 l-0.84 -0.56 l0 -4.48 l6.72 0 l0 4.48 l-0.84 0.56 l0 17.92 l0.84 0.56 l0 4.48 l-6.72 0 l0 -4.48 l0.84 -0.56 l0 -6.44 l-6.16 0 l0 6.44 l0.84 0.56 l0 4.48 l-6.72 0 z M21.52 40 l0 -4.48 l0.84 -0.56 l0 -17.92 l-0.84 -0.56 l0 -4.48 l6.72 0 l0 4.48 l-0.84 0.56 l0 17.92 l0.84 0.56 l0 4.48 l-6.72 0 z M34.36 40 l-3.72 -3.72 l0 -20.56 l3.72 -3.72 l8.8 0 l3.72 3.72 l0 5.24 l-5.04 0 l0 -3.16 l-0.76 -0.76 l-4.64 0 l-0.76 0.76 l0 16.4 l0.76 0.76 l4.64 0 l0.76 -0.76 l0 -5.68 l-1.68 0 l-0.84 -0.56 l0 -4.48 l7.56 0 l0 12.8 l-3.72 3.72 l-8.8 0 z M49.28 40 l0 -4.48 l0.84 -0.56 l0 -17.92 l-0.84 -0.56 l0 -4.48 l6.72 0 l0 4.48 l-0.84 0.56 l0 6.44 l6.16 0 l0 -6.44 l-0.84 -0.56 l0 -4.48 l6.72 0 l0 4.48 l-0.84 0.56 l0 17.92 l0.84 0.56 l0 4.48 l-6.72 0 l0 -4.48 l0.84 -0.56 l0 -6.44 l-6.16 0 l0 6.44 l0.84 0.56 l0 4.48 l-6.72 0 z M73.12 40 l-3.6 -23.04 l-0.72 -0.48 l0 -4.48 l5.04 0 l2.52 16.12 l2.52 -16.12 l4.76 0 l2.52 16.12 l2.52 -16.12 l5.04 0 l0 4.48 l-0.72 0.48 l-3.6 23.04 l-6.48 0 l-1.64 -10.6 l-1.68 10.6 l-6.48 0 z M94.52000000000001 40 l0 -4.48 l0.84 -0.56 l3.64 -17.92 l-0.84 -0.56 l0 -4.48 l10.64 0 l0 4.48 l-0.84 0.56 l3.64 17.92 l0.84 0.56 l0 4.48 l-4.96 0 l-1.24 -6.16 l-5.52 0 l-1.24 6.16 l-4.96 0 z M101.76 28.8 l3.44 0 l-1.72 -8.56 z M118 40 l0 -4.48 l0.84 -0.56 l0 -5.36 l-4.44 -12.36 l-1.16 -0.76 l0 -4.48 l4.6 0 l3.52 9.72 l3.52 -9.72 l4.6 0 l0 4.48 l-1.16 0.76 l-4.44 12.28 l0 5.48 l0.84 0.52 l0 4.48 l-6.72 0 z M141.99999999999997 40 l-3.72 -3.72 l0 -20.56 l3.72 -3.72 l8.8 0 l3.72 3.72 l0 5.24 l-5.04 0 l0 -3.16 l-0.76 -0.76 l-4.64 0 l-0.76 0.76 l0 16.4 l0.76 0.76 l4.64 0 l0.76 -0.76 l0 -5.68 l-1.68 0 l-0.84 -0.56 l0 -4.48 l7.56 0 l0 12.8 l-3.72 3.72 l-8.8 0 z M156.11999999999998 40 l0 -4.48 l0.84 -0.56 l3.64 -17.92 l-0.84 -0.56 l0 -4.48 l10.64 0 l0 4.48 l-0.84 0.56 l3.64 17.92 l0.84 0.56 l0 4.48 l-4.96 0 l-1.24 -6.16 l-5.52 0 l-1.24 6.16 l-4.96 0 z M163.35999999999996 28.8 l3.44 0 l-1.72 -8.56 z M180.67999999999998 40 l0 -4.48 l0.84 -0.56 l0 -17.92 l-0.84 0 l-0.56 0.84 l-4.48 0 l0 -5.88 l16.8 0 l0 5.88 l-4.48 0 l-0.56 -0.84 l-0.84 0 l0 17.92 l0.84 0.56 l0 4.48 l-6.72 0 z M194.83999999999995 40 l0 -4.48 l0.84 -0.56 l0 -17.92 l-0.84 -0.56 l0 -4.48 l14.56 0 l0 5.88 l-4.48 0 l-0.56 -0.84 l-3.64 0 l0 6.44 l6.44 0 l0 5.04 l-6.44 0 l0 6.44 l3.64 0 l0.56 -0.84 l4.48 0 l0 5.88 l-14.56 0 z M215.51999999999995 40 l-3.72 -3.72 l0 -5.24 l5.04 0 l0 3.16 l0.76 0.76 l4.08 0 l0.76 -0.76 l0 -4.92 l-0.76 -0.76 l-6.16 0 l-3.72 -3.72 l0 -9.08 l3.72 -3.72 l8.24 0 l3.72 3.72 l0 5.24 l-5.04 0 l0 -3.16 l-0.76 -0.76 l-4.08 0 l-0.76 0.76 l0 4.92 l0.76 0.76 l6.16 0 l3.72 3.72 l0 9.08 l-3.72 3.72 l-8.24 0 z"></path></g><g id="SvgjsG1642" featureKey="sloganFeature-0" transform="matrix(0.9464963668366656,0,0,0.9464963668366656,65,283.90784853545154)" fill="#0074e4"><path d="M6.92 5.68 l0 1.92 l-2.38 0 l0 12.42 l-1.92 0 l0 -12.42 l-2.62 0 l0 -1.92 l6.92 0 z M14.794500000000001 20.04 l-2.04 0 l-1.1 -3.02 l-0.44 0 l0 3.02 l-1.9 0 l0 -14.32 l2.98 0 c1.32 0 2.38 1.06 2.38 2.38 l0 6.54 c0 0.86 -0.44 1.6 -1.12 2.02 z M11.214500000000001 7.619999999999999 l0 7.5 l1.08 0 c0.26 0 0.48 -0.22 0.48 -0.48 l0 -6.54 c0 -0.26 -0.22 -0.48 -0.48 -0.48 l-1.08 0 z M22.289 20 l-0.72 -4.94 l-2.02 0 l-0.66 4.94 l-1.92 0 l2.16 -14.3 l2.58 0 l2.5 14.3 l-1.92 0 z M19.809 13.16 l1.48 0 l-0.76 -5.2 z M31.4035 10.62 l0 1.88 l-2.82 0 l0 7.46 l-1.88 0 l0 -14.24 l4.66 0 l0 1.9 l-2.78 0 l0 3 l2.82 0 z M38.598000000000006 10.62 l0 1.88 l-2.82 0 l0 7.46 l-1.88 0 l0 -14.24 l4.66 0 l0 1.9 l-2.78 0 l0 3 l2.82 0 z M42.9925 5.68 l0 14.24 l-1.9 0 l0 -14.24 l1.9 0 z M48.167 19.96 c-1.48 0 -2.68 -1.2 -2.68 -2.68 l0 -8.88 c0 -1.48 1.2 -2.68 2.68 -2.68 s2.68 1.2 2.68 2.68 l0 0.8 l-1.9 0 l0 -0.8 c0 -0.42 -0.36 -0.78 -0.78 -0.78 s-0.78 0.36 -0.78 0.78 l0 8.88 c0 0.42 0.36 0.78 0.78 0.78 s0.78 -0.36 0.78 -0.78 l0 -1.28 l1.9 0 l0 1.28 c0 1.48 -1.2 2.68 -2.68 2.68 z M61.516000000000005 19.96 c-1.48 0 -2.68 -1.2 -2.68 -2.68 l0 -8.88 c0 -1.48 1.2 -2.68 2.68 -2.68 s2.68 1.2 2.68 2.68 l0 0.8 l-1.9 0 l0 -0.8 c0 -0.42 -0.36 -0.78 -0.78 -0.78 s-0.78 0.36 -0.78 0.78 l0 8.88 c0 0.42 0.36 0.78 0.78 0.78 s0.78 -0.36 0.78 -0.78 l0 -1.28 l1.9 0 l0 1.28 c0 1.48 -1.2 2.68 -2.68 2.68 z M69.3905 20.02 c-1.5 0 -2.7 -1.22 -2.7 -2.7 l0 -8.98 c0 -1.48 1.2 -2.68 2.7 -2.68 c1.48 0 2.68 1.2 2.68 2.68 l0 8.98 c0 1.48 -1.2 2.7 -2.68 2.7 z M69.3905 7.5600000000000005 c-0.44 0 -0.78 0.36 -0.78 0.78 l0 8.98 c0 0.44 0.34 0.78 0.78 0.78 c0.42 0 0.78 -0.34 0.78 -0.78 l0 -8.98 c0 -0.42 -0.36 -0.78 -0.78 -0.78 z M79.205 16.72 l0.08 -11.08 l1.92 0 l-0.12 14.44 l-2.98 0 l-1.62 -11.18 l0 11.18 l-1.92 0 l0 -14.44 l3.1 0 z M90.6195 5.68 l0 1.92 l-2.38 0 l0 12.42 l-1.92 0 l0 -12.42 l-2.62 0 l0 -1.92 l6.92 0 z M98.49400000000001 20.04 l-2.04 0 l-1.1 -3.02 l-0.44 0 l0 3.02 l-1.9 0 l0 -14.32 l2.98 0 c1.32 0 2.38 1.06 2.38 2.38 l0 6.54 c0 0.86 -0.44 1.6 -1.12 2.02 z M94.91400000000002 7.619999999999999 l0 7.5 l1.08 0 c0.26 0 0.48 -0.22 0.48 -0.48 l0 -6.54 c0 -0.26 -0.22 -0.48 -0.48 -0.48 l-1.08 0 z M105.98850000000002 20 l-0.72 -4.94 l-2.02 0 l-0.66 4.94 l-1.92 0 l2.16 -14.3 l2.58 0 l2.5 14.3 l-1.92 0 z M103.50850000000003 13.16 l1.48 0 l-0.76 -5.2 z M112.48300000000002 20 l-1.98 0 l-2 -14.28 l1.92 0 l1.04 7.36 l0.96 -7.36 l1.92 0 z M121.35750000000002 12.46 l-2.76 0 l0 5.64 l2.78 0 l0 1.9 l-4.68 0 l0 -14.28 l4.68 0 l0 1.9 l-2.78 0 l0 2.94 l2.76 0 l0 1.9 z M128.512 16.72 l0.08 -11.08 l1.92 0 l-0.12 14.44 l-2.98 0 l-1.62 -11.18 l0 11.18 l-1.92 0 l0 -14.44 l3.1 0 z M139.9265 5.68 l0 1.92 l-2.38 0 l0 12.42 l-1.92 0 l0 -12.42 l-2.62 0 l0 -1.92 l6.92 0 z M144.08100000000002 5.68 l0 14.24 l-1.9 0 l0 -14.24 l1.9 0 z M149.2755 20.02 c-1.5 0 -2.7 -1.22 -2.7 -2.7 l0 -8.98 c0 -1.48 1.2 -2.68 2.7 -2.68 c1.48 0 2.68 1.2 2.68 2.68 l0 8.98 c0 1.48 -1.2 2.7 -2.68 2.7 z M149.2755 7.5600000000000005 c-0.44 0 -0.78 0.36 -0.78 0.78 l0 8.98 c0 0.44 0.34 0.78 0.78 0.78 c0.42 0 0.78 -0.34 0.78 -0.78 l0 -8.98 c0 -0.42 -0.36 -0.78 -0.78 -0.78 z M159.09 16.72 l0.08 -11.08 l1.92 0 l-0.12 14.44 l-2.98 0 l-1.62 -11.18 l0 11.18 l-1.92 0 l0 -14.44 l3.1 0 z M166.32450000000003 20.12 c-1.52 0 -2.74 -1.24 -2.74 -2.74 l0 -2.18 l1.94 0 l0 2.18 c0 0.44 0.36 0.8 0.8 0.8 s0.78 -0.36 0.78 -0.8 l0 -1.9 l-3.52 -4.86 l0 -2.48 c0 -1.52 1.22 -2.76 2.74 -2.76 c1.5 0 2.72 1.24 2.72 2.76 l0 2.16 l-1.94 0 l0 -2.16 c0 -0.46 -0.34 -0.8 -0.78 -0.8 s-0.8 0.34 -0.8 0.8 l0 1.82 l3.52 4.86 l0 2.56 c0 1.5 -1.22 2.74 -2.72 2.74 z"></path></g>
			</g>
		</svg>
	