<svg width="652" height="414" viewBox="0 0 652 414" fill="none" xmlns="http://www.w3.org/2000/svg">
    <g clip-path="url(#clip0_0_670)">
        <rect width="652" height="414" rx="30" fill="#004D40"/>
        <circle cx="562" cy="324" r="162" fill="#66948C"/>
        <path d="M42.7965 74V48.5455H52.1183C53.9246 48.5455 55.4202 48.8437 56.6051 49.4403C57.79 50.0286 58.6766 50.8282 59.2649 51.8391C59.8532 52.8417 60.1474 53.9728 60.1474 55.2322C60.1474 56.2928 59.9527 57.1877 59.5632 57.9169C59.1738 58.6378 58.6518 59.2178 57.9972 59.657C57.3509 60.0878 56.6383 60.4027 55.8594 60.6016V60.8501C56.7045 60.8916 57.529 61.165 58.3327 61.6705C59.1448 62.1676 59.8159 62.8761 60.3462 63.7958C60.8765 64.7156 61.1417 65.8342 61.1417 67.1516C61.1417 68.4525 60.8351 69.6209 60.2219 70.6566C59.6171 71.6841 58.6808 72.5002 57.413 73.1051C56.1452 73.7017 54.5253 74 52.5533 74H42.7965ZM46.6371 70.7063H52.1804C54.0199 70.7063 55.3374 70.35 56.1328 69.6374C56.9283 68.9248 57.326 68.0341 57.326 66.9652C57.326 66.1615 57.123 65.424 56.717 64.7528C56.311 64.0817 55.7309 63.5472 54.9769 63.1495C54.2312 62.7518 53.3446 62.5529 52.3171 62.5529H46.6371V70.7063ZM46.6371 59.5575H51.7827C52.6444 59.5575 53.4192 59.3918 54.1069 59.0604C54.8029 58.7289 55.3539 58.2649 55.7599 57.6683C56.1742 57.0634 56.3814 56.3509 56.3814 55.5305C56.3814 54.4782 56.0127 53.5958 55.2752 52.8832C54.5378 52.1706 53.4067 51.8143 51.8821 51.8143H46.6371V59.5575ZM70.9544 74.4226C69.7446 74.4226 68.6509 74.1989 67.6731 73.7514C66.6954 73.2957 65.9206 72.637 65.3489 71.7752C64.7855 70.9135 64.5037 69.857 64.5037 68.6058C64.5037 67.5286 64.7109 66.642 65.1252 65.946C65.5395 65.25 66.0988 64.699 66.8031 64.293C67.5074 63.887 68.2946 63.5804 69.1646 63.3732C70.0346 63.1661 70.9212 63.0086 71.8244 62.9009C72.9679 62.7683 73.8959 62.6606 74.6085 62.5778C75.3211 62.4866 75.839 62.3416 76.1621 62.1428C76.4853 61.9439 76.6468 61.6207 76.6468 61.1733V61.0863C76.6468 60.0008 76.3403 59.1598 75.7271 58.5632C75.1222 57.9666 74.219 57.6683 73.0176 57.6683C71.7664 57.6683 70.7804 57.9459 70.0595 58.5011C69.3469 59.0479 68.8539 59.657 68.5804 60.3281L65.0879 59.5327C65.5022 58.3726 66.1071 57.4363 66.9025 56.7237C67.7063 56.0028 68.6301 55.4808 69.6742 55.1577C70.7182 54.8262 71.8161 54.6605 72.9679 54.6605C73.7302 54.6605 74.5381 54.7517 75.3915 54.9339C76.2533 55.108 77.057 55.4311 77.8027 55.9034C78.5568 56.3757 79.1741 57.051 79.6547 57.9293C80.1352 58.7994 80.3755 59.9304 80.3755 61.3224V74H76.7463V71.3899H76.5971C76.3568 71.8705 75.9964 72.3428 75.5158 72.8068C75.0352 73.2708 74.4179 73.6561 73.6639 73.9627C72.9099 74.2693 72.0067 74.4226 70.9544 74.4226ZM71.7623 71.4396C72.7897 71.4396 73.668 71.2366 74.3972 70.8306C75.1346 70.4246 75.694 69.8943 76.0751 69.2397C76.4645 68.5768 76.6593 67.8684 76.6593 67.1143V64.6534C76.5267 64.786 76.2698 64.9103 75.8887 65.0263C75.5158 65.134 75.0891 65.2293 74.6085 65.3121C74.1279 65.3867 73.6597 65.4571 73.204 65.5234C72.7483 65.5814 72.3671 65.6312 72.0605 65.6726C71.3397 65.7637 70.6809 65.917 70.0843 66.1325C69.496 66.3479 69.0237 66.6586 68.6674 67.0646C68.3194 67.4624 68.1454 67.9927 68.1454 68.6555C68.1454 69.5753 68.4851 70.2713 69.1646 70.7436C69.844 71.2076 70.7099 71.4396 71.7623 71.4396ZM89.0416 48.5455V74H85.3254V48.5455H89.0416ZM99.5969 74.4226C98.3872 74.4226 97.2934 74.1989 96.3157 73.7514C95.3379 73.2957 94.5632 72.637 93.9915 71.7752C93.428 70.9135 93.1463 69.857 93.1463 68.6058C93.1463 67.5286 93.3535 66.642 93.7678 65.946C94.1821 65.25 94.7414 64.699 95.4457 64.293C96.15 63.887 96.9371 63.5804 97.8072 63.3732C98.6772 63.1661 99.5638 63.0086 100.467 62.9009C101.61 62.7683 102.538 62.6606 103.251 62.5778C103.964 62.4866 104.482 62.3416 104.805 62.1428C105.128 61.9439 105.289 61.6207 105.289 61.1733V61.0863C105.289 60.0008 104.983 59.1598 104.37 58.5632C103.765 57.9666 102.862 57.6683 101.66 57.6683C100.409 57.6683 99.4229 57.9459 98.7021 58.5011C97.9895 59.0479 97.4964 59.657 97.223 60.3281L93.7305 59.5327C94.1448 58.3726 94.7496 57.4363 95.5451 56.7237C96.3488 56.0028 97.2727 55.4808 98.3168 55.1577C99.3608 54.8262 100.459 54.6605 101.61 54.6605C102.373 54.6605 103.181 54.7517 104.034 54.9339C104.896 55.108 105.7 55.4311 106.445 55.9034C107.199 56.3757 107.817 57.051 108.297 57.9293C108.778 58.7994 109.018 59.9304 109.018 61.3224V74H105.389V71.3899H105.24C104.999 71.8705 104.639 72.3428 104.158 72.8068C103.678 73.2708 103.06 73.6561 102.306 73.9627C101.552 74.2693 100.649 74.4226 99.5969 74.4226ZM100.405 71.4396C101.432 71.4396 102.311 71.2366 103.04 70.8306C103.777 70.4246 104.337 69.8943 104.718 69.2397C105.107 68.5768 105.302 67.8684 105.302 67.1143V64.6534C105.169 64.786 104.912 64.9103 104.531 65.0263C104.158 65.134 103.732 65.2293 103.251 65.3121C102.77 65.3867 102.302 65.4571 101.847 65.5234C101.391 65.5814 101.01 65.6312 100.703 65.6726C99.9822 65.7637 99.3235 65.917 98.7269 66.1325C98.1386 66.3479 97.6663 66.6586 97.31 67.0646C96.962 67.4624 96.788 67.9927 96.788 68.6555C96.788 69.5753 97.1277 70.2713 97.8072 70.7436C98.4866 71.2076 99.3525 71.4396 100.405 71.4396ZM117.684 62.6648V74H113.968V54.9091H117.535V58.0163H117.771C118.21 57.0054 118.898 56.1934 119.834 55.5803C120.779 54.9671 121.968 54.6605 123.402 54.6605C124.702 54.6605 125.842 54.9339 126.82 55.4808C127.797 56.0194 128.555 56.8232 129.094 57.892C129.633 58.9609 129.902 60.2826 129.902 61.8569V74H126.186V62.3043C126.186 60.9206 125.825 59.8393 125.104 59.0604C124.383 58.2732 123.393 57.8796 122.134 57.8796C121.272 57.8796 120.506 58.0661 119.834 58.4389C119.172 58.8118 118.645 59.3587 118.256 60.0795C117.875 60.7921 117.684 61.6539 117.684 62.6648ZM142.927 74.3853C141.08 74.3853 139.489 73.9669 138.155 73.13C136.829 72.2848 135.81 71.1206 135.097 69.6374C134.385 68.1542 134.028 66.4556 134.028 64.5415C134.028 62.6026 134.393 60.8916 135.122 59.4084C135.851 57.9169 136.879 56.7527 138.204 55.9158C139.53 55.079 141.092 54.6605 142.89 54.6605C144.34 54.6605 145.633 54.9298 146.768 55.4684C147.903 55.9987 148.819 56.7444 149.515 57.7056C150.219 58.6668 150.638 59.7895 150.77 61.0739H147.153C146.954 60.179 146.499 59.4084 145.786 58.7621C145.082 58.1158 144.137 57.7926 142.952 57.7926C141.917 57.7926 141.009 58.0661 140.23 58.6129C139.46 59.1515 138.859 59.9221 138.428 60.9247C137.997 61.919 137.782 63.0956 137.782 64.4545C137.782 65.8466 137.993 67.0481 138.416 68.0589C138.838 69.0698 139.435 69.8529 140.206 70.408C140.984 70.9632 141.9 71.2408 142.952 71.2408C143.657 71.2408 144.295 71.1123 144.866 70.8555C145.446 70.5903 145.931 70.2133 146.321 69.7244C146.718 69.2356 146.996 68.6473 147.153 67.9595H150.77C150.638 69.1941 150.236 70.2962 149.565 71.2656C148.893 72.2351 147.994 72.9974 146.867 73.5526C145.749 74.1077 144.436 74.3853 142.927 74.3853ZM162.972 74.3853C161.091 74.3853 159.471 73.9834 158.113 73.1797C156.762 72.3677 155.718 71.2283 154.98 69.7617C154.251 68.2868 153.887 66.5592 153.887 64.5788C153.887 62.6233 154.251 60.8999 154.98 59.4084C155.718 57.9169 156.745 56.7527 158.063 55.9158C159.389 55.079 160.938 54.6605 162.711 54.6605C163.788 54.6605 164.833 54.8387 165.843 55.195C166.854 55.5513 167.762 56.1106 168.565 56.8729C169.369 57.6352 170.003 58.6254 170.467 59.8434C170.931 61.0531 171.163 62.5239 171.163 64.2557V65.5732H155.987V62.7891H167.521C167.521 61.8113 167.322 60.9454 166.925 60.1914C166.527 59.4291 165.968 58.8284 165.247 58.3892C164.534 57.95 163.697 57.7305 162.736 57.7305C161.692 57.7305 160.781 57.9873 160.002 58.5011C159.231 59.0065 158.635 59.6694 158.212 60.4897C157.798 61.3017 157.591 62.1842 157.591 63.1371V65.3121C157.591 66.5882 157.814 67.6737 158.262 68.5685C158.717 69.4634 159.351 70.147 160.163 70.6193C160.975 71.0833 161.924 71.3153 163.01 71.3153C163.714 71.3153 164.356 71.2159 164.936 71.017C165.516 70.8099 166.017 70.5033 166.44 70.0973C166.863 69.6913 167.186 69.19 167.409 68.5934L170.927 69.2273C170.645 70.263 170.14 71.1703 169.411 71.9492C168.69 72.7198 167.782 73.3205 166.689 73.7514C165.603 74.174 164.364 74.3853 162.972 74.3853Z" fill="#66948C"/>
        <path d="M54.9503 187.545V142.091H57.8622V187.545H54.9503ZM63.3487 156.633C63.183 155.082 62.4846 153.875 61.2536 153.011C60.0343 152.147 58.4482 151.714 56.495 151.714C55.1219 151.714 53.9441 151.922 52.9616 152.336C51.9792 152.75 51.2275 153.312 50.7067 154.023C50.1858 154.733 49.9195 155.544 49.9077 156.455C49.9077 157.213 50.0793 157.87 50.4226 158.426C50.7777 158.982 51.2571 159.456 51.8608 159.847C52.4645 160.225 53.1333 160.545 53.8672 160.805C54.6011 161.066 55.3409 161.285 56.0866 161.462L59.4957 162.315C60.8688 162.634 62.1887 163.066 63.4553 163.611C64.7337 164.155 65.8759 164.842 66.8821 165.67C67.9001 166.499 68.705 167.499 69.2969 168.671C69.8887 169.843 70.1847 171.216 70.1847 172.79C70.1847 174.921 69.6402 176.797 68.5511 178.419C67.4621 180.029 65.8878 181.29 63.8281 182.201C61.7803 183.101 59.3004 183.55 56.3885 183.55C53.5594 183.55 51.1032 183.112 49.0199 182.237C46.9484 181.361 45.3267 180.082 44.1548 178.401C42.9948 176.72 42.3674 174.673 42.2727 172.258H48.7536C48.8482 173.524 49.2389 174.578 49.9254 175.418C50.612 176.259 51.5057 176.886 52.6065 177.3C53.7192 177.715 54.9621 177.922 56.3352 177.922C57.7675 177.922 59.0223 177.709 60.0994 177.283C61.1884 176.845 62.0407 176.241 62.6562 175.472C63.2718 174.69 63.5855 173.779 63.5973 172.737C63.5855 171.79 63.3073 171.009 62.7628 170.393C62.2183 169.766 61.4548 169.245 60.4723 168.831C59.5017 168.405 58.3653 168.026 57.0632 167.695L52.9261 166.629C49.9313 165.86 47.5639 164.694 45.8239 163.131C44.0956 161.557 43.2315 159.468 43.2315 156.864C43.2315 154.721 43.8116 152.845 44.9716 151.235C46.1435 149.625 47.7356 148.376 49.7479 147.489C51.7602 146.589 54.0388 146.139 56.5838 146.139C59.1643 146.139 61.4252 146.589 63.3665 147.489C65.3196 148.376 66.8525 149.613 67.9652 151.2C69.0779 152.774 69.652 154.585 69.6875 156.633H63.3487ZM101.155 183.497C98.5982 183.497 96.3255 183.059 94.3368 182.183C92.36 181.307 90.7975 180.088 89.6493 178.526C88.5011 176.963 87.8915 175.158 87.8205 173.11H94.4966C94.5558 174.093 94.8813 174.951 95.4732 175.685C96.065 176.407 96.8522 176.969 97.8347 177.371C98.8172 177.774 99.918 177.975 101.137 177.975C102.439 177.975 103.593 177.75 104.6 177.3C105.606 176.839 106.393 176.2 106.961 175.383C107.529 174.566 107.807 173.625 107.796 172.56C107.807 171.459 107.523 170.488 106.943 169.648C106.363 168.807 105.523 168.15 104.422 167.677C103.333 167.203 102.019 166.967 100.48 166.967H97.2665V161.888H100.48C101.747 161.888 102.854 161.67 103.801 161.232C104.759 160.794 105.511 160.178 106.056 159.385C106.6 158.58 106.866 157.651 106.855 156.597C106.866 155.567 106.636 154.674 106.162 153.916C105.7 153.147 105.044 152.549 104.191 152.123C103.351 151.697 102.362 151.484 101.226 151.484C100.113 151.484 99.0835 151.685 98.1365 152.087C97.1896 152.49 96.4261 153.064 95.8461 153.81C95.266 154.544 94.9583 155.42 94.9228 156.438H88.584C88.6313 154.402 89.2173 152.614 90.3418 151.075C91.4782 149.525 92.9933 148.317 94.8873 147.453C96.7812 146.577 98.906 146.139 101.262 146.139C103.688 146.139 105.795 146.595 107.583 147.506C109.382 148.406 110.773 149.619 111.755 151.146C112.738 152.673 113.229 154.36 113.229 156.207C113.241 158.254 112.637 159.971 111.418 161.356C110.21 162.741 108.624 163.646 106.659 164.072V164.357C109.216 164.712 111.175 165.659 112.536 167.197C113.91 168.724 114.59 170.624 114.578 172.897C114.578 174.933 113.998 176.756 112.838 178.366C111.69 179.964 110.104 181.219 108.08 182.13C106.067 183.041 103.759 183.497 101.155 183.497ZM127.216 178.028L126.985 179.982C126.819 181.473 126.523 182.988 126.097 184.527C125.683 186.078 125.245 187.504 124.783 188.806C124.322 190.108 123.949 191.132 123.665 191.878H119.332C119.498 191.156 119.723 190.173 120.007 188.93C120.303 187.688 120.587 186.291 120.859 184.74C121.132 183.189 121.315 181.615 121.41 180.017L121.534 178.028H127.216ZM133.688 176.253V171.015L149.118 146.636H153.485V154.094H150.822L140.435 170.553V170.837H161.973V176.253H133.688ZM151.035 183V174.655L151.106 172.311V146.636H157.321V183H151.035ZM181.087 183.692C178.163 183.692 175.653 182.953 173.558 181.473C171.475 179.982 169.871 177.833 168.746 175.028C167.634 172.21 167.077 168.819 167.077 164.854C167.089 160.888 167.652 157.515 168.764 154.733C169.889 151.939 171.493 149.809 173.576 148.341C175.671 146.873 178.175 146.139 181.087 146.139C183.999 146.139 186.502 146.873 188.597 148.341C190.692 149.809 192.296 151.939 193.409 154.733C194.534 157.527 195.096 160.9 195.096 164.854C195.096 168.831 194.534 172.228 193.409 175.045C192.296 177.851 190.692 179.993 188.597 181.473C186.514 182.953 184.01 183.692 181.087 183.692ZM181.087 178.135C183.359 178.135 185.153 177.016 186.467 174.779C187.792 172.53 188.455 169.222 188.455 164.854C188.455 161.965 188.153 159.539 187.55 157.574C186.946 155.609 186.094 154.129 184.993 153.135C183.892 152.129 182.59 151.626 181.087 151.626C178.826 151.626 177.038 152.75 175.724 154.999C174.411 157.237 173.748 160.521 173.736 164.854C173.724 167.754 174.014 170.192 174.606 172.169C175.21 174.146 176.062 175.637 177.163 176.643C178.263 177.638 179.571 178.135 181.087 178.135ZM214.046 183.497C211.489 183.497 209.216 183.059 207.227 182.183C205.251 181.307 203.688 180.088 202.54 178.526C201.392 176.963 200.782 175.158 200.711 173.11H207.387C207.446 174.093 207.772 174.951 208.364 175.685C208.956 176.407 209.743 176.969 210.725 177.371C211.708 177.774 212.809 177.975 214.028 177.975C215.33 177.975 216.484 177.75 217.49 177.3C218.496 176.839 219.284 176.2 219.852 175.383C220.42 174.566 220.698 173.625 220.686 172.56C220.698 171.459 220.414 170.488 219.834 169.648C219.254 168.807 218.414 168.15 217.313 167.677C216.224 167.203 214.91 166.967 213.371 166.967H210.157V161.888H213.371C214.637 161.888 215.744 161.67 216.691 161.232C217.65 160.794 218.402 160.178 218.946 159.385C219.491 158.58 219.757 157.651 219.745 156.597C219.757 155.567 219.526 154.674 219.053 153.916C218.591 153.147 217.934 152.549 217.082 152.123C216.241 151.697 215.253 151.484 214.117 151.484C213.004 151.484 211.974 151.685 211.027 152.087C210.08 152.49 209.317 153.064 208.737 153.81C208.157 154.544 207.849 155.42 207.813 156.438H201.475C201.522 154.402 202.108 152.614 203.232 151.075C204.369 149.525 205.884 148.317 207.778 147.453C209.672 146.577 211.797 146.139 214.152 146.139C216.579 146.139 218.686 146.595 220.473 147.506C222.272 148.406 223.663 149.619 224.646 151.146C225.628 152.673 226.119 154.36 226.119 156.207C226.131 158.254 225.528 159.971 224.308 161.356C223.101 162.741 221.515 163.646 219.55 164.072V164.357C222.107 164.712 224.066 165.659 225.427 167.197C226.8 168.724 227.481 170.624 227.469 172.897C227.469 174.933 226.889 176.756 225.729 178.366C224.581 179.964 222.994 181.219 220.97 182.13C218.958 183.041 216.65 183.497 214.046 183.497ZM236.52 183.391C235.443 183.391 234.519 183.012 233.75 182.254C232.981 181.497 232.602 180.573 232.614 179.484C232.602 178.419 232.981 177.508 233.75 176.75C234.519 175.992 235.443 175.614 236.52 175.614C237.562 175.614 238.467 175.992 239.237 176.75C240.018 177.508 240.414 178.419 240.426 179.484C240.414 180.206 240.225 180.863 239.858 181.455C239.503 182.047 239.029 182.521 238.438 182.876C237.857 183.219 237.218 183.391 236.52 183.391ZM259.016 183.692C256.093 183.692 253.583 182.953 251.488 181.473C249.405 179.982 247.801 177.833 246.676 175.028C245.563 172.21 245.007 168.819 245.007 164.854C245.019 160.888 245.581 157.515 246.694 154.733C247.818 151.939 249.422 149.809 251.506 148.341C253.601 146.873 256.104 146.139 259.016 146.139C261.928 146.139 264.432 146.873 266.527 148.341C268.622 149.809 270.226 151.939 271.339 154.733C272.463 157.527 273.026 160.9 273.026 164.854C273.026 168.831 272.463 172.228 271.339 175.045C270.226 177.851 268.622 179.993 266.527 181.473C264.444 182.953 261.94 183.692 259.016 183.692ZM259.016 178.135C261.289 178.135 263.082 177.016 264.396 174.779C265.722 172.53 266.385 169.222 266.385 164.854C266.385 161.965 266.083 159.539 265.479 157.574C264.876 155.609 264.023 154.129 262.923 153.135C261.822 152.129 260.52 151.626 259.016 151.626C256.755 151.626 254.968 152.75 253.654 154.999C252.34 157.237 251.677 160.521 251.665 164.854C251.654 167.754 251.944 170.192 252.536 172.169C253.139 174.146 253.991 175.637 255.092 176.643C256.193 177.638 257.501 178.135 259.016 178.135ZM291.549 146.139C293.289 146.151 294.982 146.459 296.627 147.062C298.285 147.654 299.776 148.625 301.102 149.974C302.427 151.312 303.481 153.105 304.262 155.354C305.044 157.603 305.434 160.385 305.434 163.7C305.446 166.825 305.115 169.618 304.44 172.08C303.777 174.531 302.824 176.602 301.581 178.295C300.338 179.987 298.841 181.278 297.089 182.165C295.337 183.053 293.366 183.497 291.176 183.497C288.88 183.497 286.844 183.047 285.068 182.148C283.305 181.248 281.878 180.017 280.789 178.455C279.7 176.892 279.031 175.105 278.783 173.092H285.264C285.595 174.536 286.27 175.685 287.288 176.537C288.318 177.377 289.614 177.798 291.176 177.798C293.698 177.798 295.639 176.703 297 174.513C298.361 172.323 299.042 169.281 299.042 165.386H298.794C298.213 166.428 297.462 167.328 296.539 168.085C295.615 168.831 294.568 169.405 293.396 169.808C292.236 170.21 291.005 170.411 289.703 170.411C287.572 170.411 285.654 169.902 283.95 168.884C282.257 167.866 280.914 166.469 279.919 164.694C278.937 162.918 278.44 160.888 278.428 158.604C278.428 156.236 278.972 154.112 280.061 152.229C281.162 150.335 282.695 148.844 284.66 147.755C286.625 146.654 288.921 146.116 291.549 146.139ZM291.567 151.466C290.289 151.466 289.134 151.78 288.105 152.407C287.087 153.022 286.282 153.863 285.69 154.928C285.11 155.982 284.82 157.16 284.82 158.462C284.832 159.752 285.122 160.924 285.69 161.977C286.27 163.031 287.057 163.865 288.051 164.481C289.057 165.096 290.206 165.404 291.496 165.404C292.455 165.404 293.348 165.221 294.177 164.854C295.006 164.487 295.728 163.978 296.343 163.327C296.971 162.664 297.456 161.912 297.799 161.072C298.154 160.231 298.326 159.344 298.314 158.408C298.314 157.165 298.018 156.017 297.426 154.964C296.846 153.91 296.047 153.064 295.029 152.425C294.023 151.786 292.869 151.466 291.567 151.466Z" fill="white"/>
        <path d="M50.9702 234.727V207.455H52.7173V234.727H50.9702ZM56.0092 216.18C55.9098 215.249 55.4908 214.525 54.7521 214.006C54.0206 213.488 53.0689 213.229 51.897 213.229C51.0732 213.229 50.3665 213.353 49.777 213.602C49.1875 213.85 48.7365 214.187 48.424 214.614C48.1115 215.04 47.9517 215.526 47.9446 216.073C47.9446 216.528 48.0476 216.922 48.2536 217.256C48.4666 217.589 48.7543 217.874 49.1165 218.108C49.4787 218.335 49.88 218.527 50.3203 218.683C50.7607 218.839 51.2045 218.971 51.652 219.077L53.6974 219.589C54.5213 219.781 55.3132 220.04 56.0732 220.366C56.8402 220.693 57.5256 221.105 58.1293 221.602C58.7401 222.099 59.223 222.7 59.5781 223.403C59.9332 224.106 60.1108 224.93 60.1108 225.874C60.1108 227.153 59.7841 228.278 59.1307 229.251C58.4773 230.217 57.5327 230.974 56.2969 231.521C55.0682 232.06 53.5803 232.33 51.8331 232.33C50.1357 232.33 48.6619 232.067 47.4119 231.542C46.169 231.016 45.196 230.249 44.4929 229.241C43.7969 228.232 43.4205 227.004 43.3636 225.555H47.2521C47.3089 226.315 47.5433 226.947 47.9553 227.451C48.3672 227.955 48.9034 228.332 49.5639 228.58C50.2315 228.829 50.9773 228.953 51.8011 228.953C52.6605 228.953 53.4134 228.825 54.0597 228.57C54.7131 228.307 55.2244 227.945 55.5938 227.483C55.9631 227.014 56.1513 226.467 56.1584 225.842C56.1513 225.274 55.9844 224.805 55.6577 224.436C55.331 224.06 54.8729 223.747 54.2834 223.499C53.701 223.243 53.0192 223.016 52.2379 222.817L49.7557 222.178C47.9588 221.716 46.5384 221.016 45.4943 220.079C44.4574 219.134 43.9389 217.881 43.9389 216.318C43.9389 215.033 44.2869 213.907 44.983 212.941C45.6861 211.975 46.6413 211.226 47.8487 210.693C49.0561 210.153 50.4233 209.884 51.9503 209.884C53.4986 209.884 54.8551 210.153 56.0199 210.693C57.1918 211.226 58.1115 211.968 58.7791 212.92C59.4467 213.864 59.7912 214.951 59.8125 216.18H56.0092ZM72.2956 210.182V232H68.3432V214.028H68.2154L63.1124 217.288V213.665L68.535 210.182H72.2956ZM85.9 232.415C84.1458 232.415 82.6401 231.972 81.383 231.084C80.133 230.189 79.1706 228.9 78.4959 227.217C77.8283 225.526 77.4945 223.491 77.4945 221.112C77.5016 218.733 77.839 216.709 78.5066 215.04C79.1813 213.364 80.1436 212.085 81.3936 211.205C82.6507 210.324 84.1529 209.884 85.9 209.884C87.6472 209.884 89.1493 210.324 90.4064 211.205C91.6635 212.085 92.6259 213.364 93.2935 215.04C93.9682 216.716 94.3056 218.74 94.3056 221.112C94.3056 223.499 93.9682 225.537 93.2935 227.227C92.6259 228.911 91.6635 230.196 90.4064 231.084C89.1564 231.972 87.6543 232.415 85.9 232.415ZM85.9 229.081C87.2637 229.081 88.3397 228.41 89.128 227.067C89.9235 225.718 90.3212 223.733 90.3212 221.112C90.3212 219.379 90.1401 217.923 89.7779 216.744C89.4157 215.565 88.9043 214.678 88.2438 214.081C87.5833 213.477 86.802 213.175 85.9 213.175C84.5435 213.175 83.4711 213.85 82.6827 215.2C81.8944 216.542 81.4966 218.513 81.4895 221.112C81.4824 222.852 81.6564 224.315 82.0115 225.501C82.3738 226.687 82.8851 227.582 83.5456 228.186C84.2061 228.783 84.9909 229.081 85.9 229.081ZM99.4139 232.234C98.7676 232.234 98.2136 232.007 97.752 231.553C97.2903 231.098 97.063 230.544 97.0701 229.891C97.063 229.251 97.2903 228.705 97.752 228.25C98.2136 227.795 98.7676 227.568 99.4139 227.568C100.039 227.568 100.582 227.795 101.044 228.25C101.513 228.705 101.751 229.251 101.758 229.891C101.751 230.324 101.637 230.718 101.417 231.073C101.204 231.428 100.92 231.712 100.564 231.925C100.216 232.131 99.8329 232.234 99.4139 232.234ZM112.912 232.415C111.157 232.415 109.652 231.972 108.395 231.084C107.145 230.189 106.182 228.9 105.508 227.217C104.84 225.526 104.506 223.491 104.506 221.112C104.513 218.733 104.851 216.709 105.518 215.04C106.193 213.364 107.155 212.085 108.405 211.205C109.662 210.324 111.165 209.884 112.912 209.884C114.659 209.884 116.161 210.324 117.418 211.205C118.675 212.085 119.638 213.364 120.305 215.04C120.98 216.716 121.317 218.74 121.317 221.112C121.317 223.499 120.98 225.537 120.305 227.227C119.638 228.911 118.675 230.196 117.418 231.084C116.168 231.972 114.666 232.415 112.912 232.415ZM112.912 229.081C114.275 229.081 115.351 228.41 116.14 227.067C116.935 225.718 117.333 223.733 117.333 221.112C117.333 219.379 117.152 217.923 116.79 216.744C116.427 215.565 115.916 214.678 115.256 214.081C114.595 213.477 113.814 213.175 112.912 213.175C111.555 213.175 110.483 213.85 109.694 215.2C108.906 216.542 108.508 218.513 108.501 221.112C108.494 222.852 108.668 224.315 109.023 225.501C109.385 226.687 109.897 227.582 110.557 228.186C111.218 228.783 112.003 229.081 112.912 229.081ZM132.922 232.415C131.167 232.415 129.662 231.972 128.404 231.084C127.154 230.189 126.192 228.9 125.517 227.217C124.85 225.526 124.516 223.491 124.516 221.112C124.523 218.733 124.86 216.709 125.528 215.04C126.203 213.364 127.165 212.085 128.415 211.205C129.672 210.324 131.174 209.884 132.922 209.884C134.669 209.884 136.171 210.324 137.428 211.205C138.685 212.085 139.647 213.364 140.315 215.04C140.99 216.716 141.327 218.74 141.327 221.112C141.327 223.499 140.99 225.537 140.315 227.227C139.647 228.911 138.685 230.196 137.428 231.084C136.178 231.972 134.676 232.415 132.922 232.415ZM132.922 229.081C134.285 229.081 135.361 228.41 136.15 227.067C136.945 225.718 137.343 223.733 137.343 221.112C137.343 219.379 137.162 217.923 136.799 216.744C136.437 215.565 135.926 214.678 135.265 214.081C134.605 213.477 133.824 213.175 132.922 213.175C131.565 213.175 130.493 213.85 129.704 215.2C128.916 216.542 128.518 218.513 128.511 221.112C128.504 222.852 128.678 224.315 129.033 225.501C129.395 226.687 129.907 227.582 130.567 228.186C131.228 228.783 132.012 229.081 132.922 229.081ZM152.931 232.415C151.177 232.415 149.671 231.972 148.414 231.084C147.164 230.189 146.202 228.9 145.527 227.217C144.86 225.526 144.526 223.491 144.526 221.112C144.533 218.733 144.87 216.709 145.538 215.04C146.213 213.364 147.175 212.085 148.425 211.205C149.682 210.324 151.184 209.884 152.931 209.884C154.678 209.884 156.181 210.324 157.438 211.205C158.695 212.085 159.657 213.364 160.325 215.04C160.999 216.716 161.337 218.74 161.337 221.112C161.337 223.499 160.999 225.537 160.325 227.227C159.657 228.911 158.695 230.196 157.438 231.084C156.188 231.972 154.686 232.415 152.931 232.415ZM152.931 229.081C154.295 229.081 155.371 228.41 156.159 227.067C156.955 225.718 157.352 223.733 157.352 221.112C157.352 219.379 157.171 217.923 156.809 216.744C156.447 215.565 155.936 214.678 155.275 214.081C154.615 213.477 153.833 213.175 152.931 213.175C151.575 213.175 150.502 213.85 149.714 215.2C148.926 216.542 148.528 218.513 148.521 221.112C148.514 222.852 148.688 224.315 149.043 225.501C149.405 226.687 149.916 227.582 150.577 228.186C151.237 228.783 152.022 229.081 152.931 229.081Z" fill="white"/>
        <path d="M227.827 217.543H223.843C223.729 216.89 223.52 216.311 223.214 215.807C222.909 215.295 222.529 214.862 222.075 214.507C221.62 214.152 221.102 213.886 220.519 213.708C219.944 213.523 219.322 213.431 218.655 213.431C217.469 213.431 216.418 213.729 215.501 214.326C214.585 214.915 213.868 215.782 213.349 216.925C212.831 218.062 212.572 219.45 212.572 221.091C212.572 222.76 212.831 224.166 213.349 225.31C213.875 226.446 214.592 227.305 215.501 227.888C216.418 228.463 217.465 228.751 218.644 228.751C219.298 228.751 219.908 228.665 220.477 228.495C221.052 228.317 221.567 228.058 222.021 227.717C222.483 227.376 222.87 226.957 223.183 226.46C223.502 225.963 223.722 225.395 223.843 224.756L227.827 224.777C227.678 225.814 227.355 226.787 226.858 227.696C226.368 228.605 225.725 229.408 224.93 230.104C224.134 230.793 223.204 231.332 222.138 231.723C221.073 232.107 219.891 232.298 218.591 232.298C216.673 232.298 214.962 231.854 213.456 230.967C211.95 230.079 210.764 228.797 209.898 227.121C209.031 225.445 208.598 223.435 208.598 221.091C208.598 218.74 209.035 216.73 209.908 215.061C210.782 213.385 211.972 212.103 213.477 211.215C214.983 210.327 216.688 209.884 218.591 209.884C219.805 209.884 220.935 210.054 221.979 210.395C223.023 210.736 223.953 211.237 224.77 211.897C225.587 212.55 226.258 213.353 226.783 214.305C227.316 215.249 227.664 216.329 227.827 217.543ZM235.985 232.33C234.948 232.33 234.014 232.146 233.183 231.776C232.36 231.4 231.706 230.846 231.223 230.114C230.747 229.383 230.509 228.481 230.509 227.408C230.509 226.485 230.68 225.722 231.021 225.118C231.362 224.514 231.827 224.031 232.416 223.669C233.006 223.307 233.67 223.033 234.409 222.849C235.154 222.657 235.925 222.518 236.72 222.433C237.679 222.334 238.457 222.245 239.053 222.167C239.65 222.082 240.083 221.954 240.353 221.783C240.63 221.606 240.769 221.332 240.769 220.963V220.899C240.769 220.097 240.531 219.475 240.055 219.035C239.579 218.594 238.894 218.374 237.999 218.374C237.054 218.374 236.305 218.58 235.751 218.992C235.204 219.404 234.835 219.891 234.643 220.452L231.042 219.94C231.326 218.946 231.795 218.115 232.448 217.447C233.102 216.773 233.901 216.268 234.845 215.935C235.79 215.594 236.834 215.423 237.977 215.423C238.766 215.423 239.551 215.516 240.332 215.7C241.113 215.885 241.827 216.19 242.473 216.616C243.119 217.036 243.638 217.607 244.029 218.332C244.426 219.056 244.625 219.962 244.625 221.048V232H240.918V229.752H240.79C240.556 230.207 240.225 230.633 239.799 231.031C239.38 231.421 238.851 231.737 238.212 231.979C237.58 232.213 236.838 232.33 235.985 232.33ZM236.987 229.496C237.761 229.496 238.432 229.344 239 229.038C239.568 228.726 240.005 228.314 240.311 227.803C240.623 227.291 240.779 226.734 240.779 226.13V224.202C240.659 224.301 240.453 224.393 240.161 224.479C239.877 224.564 239.558 224.638 239.203 224.702C238.847 224.766 238.496 224.823 238.148 224.873C237.8 224.923 237.498 224.965 237.242 225.001C236.667 225.079 236.152 225.207 235.698 225.384C235.243 225.562 234.884 225.81 234.622 226.13C234.359 226.442 234.227 226.847 234.227 227.344C234.227 228.055 234.487 228.591 235.005 228.953C235.524 229.315 236.184 229.496 236.987 229.496ZM248.503 232V215.636H252.242V218.364H252.413C252.711 217.419 253.222 216.691 253.947 216.18C254.678 215.661 255.513 215.402 256.45 215.402C256.664 215.402 256.901 215.413 257.164 215.434C257.434 215.448 257.658 215.473 257.835 215.509V219.056C257.672 218.999 257.413 218.95 257.058 218.907C256.71 218.857 256.372 218.832 256.046 218.832C255.343 218.832 254.71 218.985 254.149 219.29C253.595 219.589 253.159 220.004 252.839 220.537C252.519 221.07 252.36 221.684 252.36 222.38V232H248.503ZM265.796 232.288C264.511 232.288 263.36 231.957 262.344 231.297C261.329 230.636 260.526 229.678 259.937 228.42C259.347 227.163 259.053 225.636 259.053 223.839C259.053 222.021 259.351 220.487 259.947 219.237C260.551 217.98 261.364 217.032 262.387 216.393C263.41 215.746 264.55 215.423 265.807 215.423C266.766 215.423 267.554 215.587 268.172 215.913C268.79 216.233 269.28 216.62 269.642 217.075C270.004 217.522 270.285 217.945 270.484 218.342H270.643V210.182H274.511V232H270.718V229.422H270.484C270.285 229.82 269.997 230.242 269.621 230.69C269.244 231.13 268.747 231.506 268.129 231.819C267.511 232.131 266.734 232.288 265.796 232.288ZM266.872 229.124C267.689 229.124 268.385 228.903 268.96 228.463C269.536 228.016 269.972 227.394 270.271 226.599C270.569 225.803 270.718 224.876 270.718 223.818C270.718 222.76 270.569 221.84 270.271 221.059C269.979 220.278 269.546 219.67 268.971 219.237C268.403 218.804 267.703 218.587 266.872 218.587C266.013 218.587 265.295 218.811 264.72 219.259C264.145 219.706 263.712 220.324 263.42 221.112C263.129 221.901 262.984 222.803 262.984 223.818C262.984 224.841 263.129 225.754 263.42 226.556C263.719 227.352 264.156 227.98 264.731 228.442C265.313 228.896 266.027 229.124 266.872 229.124ZM289.918 210.182V232H286.062V210.182H289.918ZM293.884 232V215.636H297.74V232H293.884ZM295.823 213.314C295.212 213.314 294.686 213.112 294.246 212.707C293.806 212.295 293.586 211.801 293.586 211.226C293.586 210.643 293.806 210.15 294.246 209.745C294.686 209.333 295.212 209.127 295.823 209.127C296.441 209.127 296.966 209.333 297.4 209.745C297.84 210.15 298.06 210.643 298.06 211.226C298.06 211.801 297.84 212.295 297.4 212.707C296.966 213.112 296.441 213.314 295.823 213.314ZM301.706 232V215.636H305.392V218.417H305.584C305.925 217.479 306.49 216.748 307.278 216.222C308.066 215.69 309.007 215.423 310.101 215.423C311.209 215.423 312.143 215.693 312.903 216.233C313.67 216.766 314.21 217.494 314.522 218.417H314.693C315.055 217.508 315.666 216.783 316.525 216.244C317.392 215.697 318.418 215.423 319.604 215.423C321.11 215.423 322.338 215.899 323.29 216.851C324.242 217.803 324.718 219.191 324.718 221.016V232H320.85V221.613C320.85 220.597 320.58 219.855 320.041 219.386C319.501 218.911 318.84 218.673 318.059 218.673C317.129 218.673 316.401 218.964 315.875 219.546C315.357 220.121 315.097 220.871 315.097 221.794V232H311.316V221.453C311.316 220.608 311.06 219.933 310.548 219.429C310.044 218.925 309.384 218.673 308.567 218.673C308.013 218.673 307.509 218.815 307.054 219.099C306.6 219.376 306.237 219.77 305.968 220.281C305.698 220.786 305.563 221.375 305.563 222.05V232H301.706ZM328.63 232V215.636H332.487V232H328.63ZM330.569 213.314C329.958 213.314 329.433 213.112 328.992 212.707C328.552 212.295 328.332 211.801 328.332 211.226C328.332 210.643 328.552 210.15 328.992 209.745C329.433 209.333 329.958 209.127 330.569 209.127C331.187 209.127 331.712 209.333 332.146 209.745C332.586 210.15 332.806 210.643 332.806 211.226C332.806 211.801 332.586 212.295 332.146 212.707C331.712 213.112 331.187 213.314 330.569 213.314ZM344.623 215.636V218.619H335.216V215.636H344.623ZM337.539 211.716H341.395V227.078C341.395 227.597 341.474 227.994 341.63 228.271C341.793 228.541 342.006 228.726 342.269 228.825C342.532 228.925 342.823 228.974 343.143 228.974C343.384 228.974 343.604 228.957 343.803 228.921C344.009 228.886 344.165 228.854 344.272 228.825L344.922 231.84C344.716 231.911 344.421 231.989 344.037 232.075C343.661 232.16 343.199 232.21 342.653 232.224C341.687 232.252 340.817 232.107 340.042 231.787C339.268 231.46 338.654 230.956 338.199 230.274C337.752 229.592 337.532 228.74 337.539 227.717V211.716Z" fill="#66948C"/>
        <path d="M63.4286 340.545V366H59.3271L47.3331 348.662H47.1218V366H42.5107V340.545H46.6371L58.6186 357.896H58.8423V340.545H63.4286ZM73.7478 366.385C72.538 366.385 71.4484 366.17 70.479 365.739C69.5178 365.3 68.7555 364.654 68.192 363.8C67.6369 362.947 67.3593 361.894 67.3593 360.643C67.3593 359.566 67.5581 358.675 67.9559 357.971C68.3536 357.267 68.8963 356.703 69.5841 356.281C70.2718 355.858 71.0465 355.539 71.9083 355.324C72.7783 355.1 73.6773 354.938 74.6054 354.839C75.724 354.723 76.6313 354.619 77.3273 354.528C78.0233 354.429 78.5288 354.279 78.8437 354.081C79.1668 353.873 79.3284 353.554 79.3284 353.124V353.049C79.3284 352.113 79.0508 351.388 78.4957 350.874C77.9405 350.36 77.1409 350.103 76.0969 350.103C74.9948 350.103 74.1207 350.344 73.4743 350.824C72.8363 351.305 72.4055 351.872 72.1817 352.527L67.9807 351.93C68.3122 350.77 68.859 349.801 69.6214 349.022C70.3837 348.235 71.3158 347.647 72.4179 347.257C73.5199 346.859 74.738 346.661 76.072 346.661C76.9917 346.661 77.9073 346.768 78.8188 346.984C79.7303 347.199 80.563 347.555 81.317 348.053C82.0711 348.541 82.6759 349.208 83.1317 350.054C83.5957 350.899 83.8277 351.955 83.8277 353.223V366H79.5024V363.377H79.3532C79.0798 363.908 78.6945 364.405 78.1974 364.869C77.7085 365.325 77.0912 365.693 76.3454 365.975C75.608 366.249 74.7421 366.385 73.7478 366.385ZM74.9161 363.079C75.8193 363.079 76.6023 362.901 77.2652 362.545C77.9281 362.18 78.4376 361.7 78.7939 361.103C79.1585 360.506 79.3408 359.856 79.3408 359.152V356.902C79.2 357.018 78.9597 357.126 78.6199 357.225C78.2885 357.325 77.9156 357.412 77.5013 357.486C77.087 357.561 76.6769 357.627 76.2709 357.685C75.8648 357.743 75.5127 357.793 75.2144 357.834C74.5432 357.925 73.9425 358.074 73.4122 358.282C72.8819 358.489 72.4635 358.779 72.1569 359.152C71.8503 359.516 71.697 359.989 71.697 360.569C71.697 361.397 71.9994 362.023 72.6043 362.445C73.2092 362.868 73.9798 363.079 74.9161 363.079ZM95.4363 366.336C93.9366 366.336 92.5943 365.95 91.4094 365.18C90.2245 364.409 89.2881 363.29 88.6004 361.824C87.9127 360.357 87.5688 358.576 87.5688 356.479C87.5688 354.358 87.9168 352.568 88.6128 351.11C89.3171 349.643 90.2659 348.537 91.4591 347.792C92.6523 347.038 93.9822 346.661 95.4488 346.661C96.5674 346.661 97.4871 346.851 98.208 347.232C98.9289 347.605 99.5006 348.057 99.9232 348.587C100.346 349.109 100.673 349.602 100.905 350.066H101.092V340.545H105.603V366H101.179V362.992H100.905C100.673 363.456 100.338 363.949 99.8983 364.471C99.4592 364.985 98.8792 365.424 98.1583 365.789C97.4374 366.153 96.5301 366.336 95.4363 366.336ZM96.6917 362.644C97.6446 362.644 98.4566 362.387 99.1278 361.874C99.7989 361.352 100.309 360.627 100.657 359.699C101.005 358.77 101.179 357.689 101.179 356.455C101.179 355.22 101.005 354.147 100.657 353.235C100.317 352.324 99.8113 351.616 99.1402 351.11C98.4773 350.605 97.6611 350.352 96.6917 350.352C95.6891 350.352 94.8522 350.613 94.181 351.135C93.5099 351.657 93.0044 352.378 92.6647 353.298C92.325 354.217 92.1551 355.27 92.1551 356.455C92.1551 357.648 92.325 358.712 92.6647 359.649C93.0127 360.577 93.5223 361.31 94.1934 361.849C94.8729 362.379 95.7056 362.644 96.6917 362.644ZM118.849 366.373C116.935 366.373 115.282 365.975 113.89 365.18C112.507 364.376 111.442 363.241 110.696 361.774C109.95 360.299 109.577 358.563 109.577 356.566C109.577 354.603 109.95 352.879 110.696 351.396C111.45 349.904 112.502 348.744 113.853 347.916C115.204 347.079 116.79 346.661 118.613 346.661C119.79 346.661 120.9 346.851 121.944 347.232C122.997 347.605 123.925 348.185 124.728 348.972C125.54 349.759 126.178 350.762 126.642 351.98C127.106 353.19 127.338 354.632 127.338 356.305V357.685H111.69V354.652H123.026C123.017 353.791 122.831 353.024 122.466 352.353C122.102 351.674 121.592 351.139 120.938 350.75C120.291 350.36 119.537 350.165 118.675 350.165C117.756 350.165 116.948 350.389 116.252 350.837C115.556 351.276 115.013 351.856 114.624 352.577C114.242 353.289 114.048 354.072 114.039 354.926V357.573C114.039 358.683 114.242 359.636 114.648 360.432C115.054 361.219 115.622 361.824 116.351 362.246C117.08 362.661 117.934 362.868 118.912 362.868C119.566 362.868 120.159 362.777 120.689 362.594C121.219 362.404 121.679 362.126 122.069 361.762C122.458 361.397 122.752 360.946 122.951 360.407L127.152 360.879C126.887 361.99 126.381 362.959 125.636 363.788C124.898 364.608 123.954 365.246 122.802 365.702C121.65 366.149 120.333 366.373 118.849 366.373ZM139.597 366.373C137.682 366.373 136.029 365.975 134.637 365.18C133.254 364.376 132.189 363.241 131.443 361.774C130.697 360.299 130.324 358.563 130.324 356.566C130.324 354.603 130.697 352.879 131.443 351.396C132.197 349.904 133.249 348.744 134.6 347.916C135.951 347.079 137.537 346.661 139.36 346.661C140.537 346.661 141.647 346.851 142.691 347.232C143.744 347.605 144.672 348.185 145.475 348.972C146.287 349.759 146.925 350.762 147.389 351.98C147.853 353.19 148.085 354.632 148.085 356.305V357.685H132.437V354.652H143.773C143.764 353.791 143.578 353.024 143.213 352.353C142.849 351.674 142.339 351.139 141.685 350.75C141.038 350.36 140.284 350.165 139.422 350.165C138.503 350.165 137.695 350.389 136.999 350.837C136.303 351.276 135.76 351.856 135.371 352.577C134.989 353.289 134.795 354.072 134.786 354.926V357.573C134.786 358.683 134.989 359.636 135.396 360.432C135.802 361.219 136.369 361.824 137.098 362.246C137.827 362.661 138.681 362.868 139.659 362.868C140.313 362.868 140.906 362.777 141.436 362.594C141.966 362.404 142.426 362.126 142.816 361.762C143.205 361.397 143.499 360.946 143.698 360.407L147.899 360.879C147.634 361.99 147.128 362.959 146.383 363.788C145.645 364.608 144.701 365.246 143.549 365.702C142.397 366.149 141.08 366.373 139.597 366.373ZM156.391 354.814V366H151.892V346.909H156.192V350.153H156.416C156.855 349.084 157.555 348.235 158.517 347.605C159.486 346.975 160.683 346.661 162.108 346.661C163.426 346.661 164.574 346.942 165.551 347.506C166.537 348.069 167.3 348.885 167.838 349.954C168.385 351.023 168.654 352.32 168.646 353.844V366H164.147V354.54C164.147 353.264 163.815 352.266 163.153 351.545C162.498 350.824 161.591 350.464 160.431 350.464C159.643 350.464 158.943 350.638 158.33 350.986C157.725 351.326 157.249 351.819 156.901 352.465C156.561 353.111 156.391 353.894 156.391 354.814ZM204.846 353.273C204.846 356.015 204.332 358.364 203.304 360.32C202.285 362.267 200.893 363.759 199.128 364.794C197.372 365.83 195.379 366.348 193.15 366.348C190.921 366.348 188.924 365.83 187.159 364.794C185.402 363.75 184.01 362.255 182.983 360.308C181.964 358.352 181.454 356.007 181.454 353.273C181.454 350.53 181.964 348.185 182.983 346.238C184.01 344.282 185.402 342.787 187.159 341.751C188.924 340.715 190.921 340.197 193.15 340.197C195.379 340.197 197.372 340.715 199.128 341.751C200.893 342.787 202.285 344.282 203.304 346.238C204.332 348.185 204.846 350.53 204.846 353.273ZM200.21 353.273C200.21 351.342 199.907 349.714 199.302 348.388C198.706 347.054 197.877 346.047 196.816 345.368C195.756 344.68 194.534 344.336 193.15 344.336C191.766 344.336 190.544 344.68 189.483 345.368C188.423 346.047 187.59 347.054 186.985 348.388C186.388 349.714 186.09 351.342 186.09 353.273C186.09 355.203 186.388 356.836 186.985 358.17C187.59 359.496 188.423 360.502 189.483 361.19C190.544 361.869 191.766 362.209 193.15 362.209C194.534 362.209 195.756 361.869 196.816 361.19C197.877 360.502 198.706 359.496 199.302 358.17C199.907 356.836 200.21 355.203 200.21 353.273ZM224.095 351.955L219.993 352.403C219.877 351.988 219.674 351.599 219.384 351.234C219.103 350.87 218.721 350.576 218.241 350.352C217.76 350.128 217.172 350.016 216.476 350.016C215.54 350.016 214.752 350.219 214.114 350.625C213.485 351.031 213.174 351.558 213.182 352.204C213.174 352.759 213.377 353.211 213.791 353.559C214.214 353.907 214.91 354.192 215.879 354.416L219.136 355.112C220.942 355.502 222.284 356.119 223.163 356.964C224.049 357.809 224.497 358.915 224.505 360.283C224.497 361.484 224.145 362.545 223.449 363.464C222.761 364.376 221.804 365.089 220.578 365.602C219.351 366.116 217.943 366.373 216.352 366.373C214.015 366.373 212.134 365.884 210.709 364.906C209.284 363.92 208.434 362.549 208.161 360.792L212.548 360.37C212.747 361.231 213.17 361.882 213.816 362.321C214.462 362.76 215.303 362.98 216.339 362.98C217.408 362.98 218.266 362.76 218.912 362.321C219.567 361.882 219.894 361.339 219.894 360.693C219.894 360.146 219.683 359.694 219.26 359.338C218.846 358.982 218.199 358.708 217.321 358.518L214.065 357.834C212.234 357.453 210.879 356.811 210 355.908C209.122 354.996 208.687 353.844 208.695 352.452C208.687 351.276 209.006 350.257 209.652 349.395C210.307 348.525 211.214 347.854 212.374 347.381C213.543 346.901 214.889 346.661 216.414 346.661C218.651 346.661 220.412 347.137 221.696 348.09C222.989 349.043 223.788 350.331 224.095 351.955ZM233.709 366.385C232.499 366.385 231.409 366.17 230.44 365.739C229.479 365.3 228.716 364.654 228.153 363.8C227.598 362.947 227.32 361.894 227.32 360.643C227.32 359.566 227.519 358.675 227.917 357.971C228.315 357.267 228.857 356.703 229.545 356.281C230.233 355.858 231.007 355.539 231.869 355.324C232.739 355.1 233.638 354.938 234.566 354.839C235.685 354.723 236.592 354.619 237.288 354.528C237.984 354.429 238.49 354.279 238.805 354.081C239.128 353.873 239.289 353.554 239.289 353.124V353.049C239.289 352.113 239.012 351.388 238.457 350.874C237.901 350.36 237.102 350.103 236.058 350.103C234.956 350.103 234.082 350.344 233.435 350.824C232.797 351.305 232.366 351.872 232.143 352.527L227.942 351.93C228.273 350.77 228.82 349.801 229.582 349.022C230.345 348.235 231.277 347.647 232.379 347.257C233.481 346.859 234.699 346.661 236.033 346.661C236.953 346.661 237.868 346.768 238.78 346.984C239.691 347.199 240.524 347.555 241.278 348.053C242.032 348.541 242.637 349.208 243.093 350.054C243.557 350.899 243.789 351.955 243.789 353.223V366H239.463V363.377H239.314C239.041 363.908 238.655 364.405 238.158 364.869C237.669 365.325 237.052 365.693 236.306 365.975C235.569 366.249 234.703 366.385 233.709 366.385ZM234.877 363.079C235.78 363.079 236.563 362.901 237.226 362.545C237.889 362.18 238.399 361.7 238.755 361.103C239.119 360.506 239.302 359.856 239.302 359.152V356.902C239.161 357.018 238.921 357.126 238.581 357.225C238.249 357.325 237.877 357.412 237.462 357.486C237.048 357.561 236.638 357.627 236.232 357.685C235.826 357.743 235.474 357.793 235.175 357.834C234.504 357.925 233.903 358.074 233.373 358.282C232.843 358.489 232.424 358.779 232.118 359.152C231.811 359.516 231.658 359.989 231.658 360.569C231.658 361.397 231.96 362.023 232.565 362.445C233.17 362.868 233.941 363.079 234.877 363.079ZM248.313 366V346.909H252.613V350.153H252.837C253.235 349.059 253.893 348.206 254.813 347.593C255.733 346.971 256.831 346.661 258.107 346.661C259.399 346.661 260.489 346.975 261.376 347.605C262.271 348.227 262.9 349.076 263.265 350.153H263.464C263.886 349.092 264.599 348.247 265.601 347.618C266.612 346.98 267.81 346.661 269.193 346.661C270.95 346.661 272.384 347.216 273.494 348.326C274.604 349.436 275.159 351.056 275.159 353.186V366H270.648V353.882C270.648 352.697 270.333 351.831 269.703 351.284C269.073 350.729 268.303 350.451 267.391 350.451C266.306 350.451 265.456 350.791 264.843 351.471C264.238 352.142 263.936 353.016 263.936 354.093V366H259.524V353.695C259.524 352.709 259.225 351.922 258.629 351.334C258.041 350.746 257.27 350.451 256.317 350.451C255.671 350.451 255.082 350.617 254.552 350.949C254.022 351.272 253.599 351.732 253.284 352.328C252.969 352.916 252.812 353.604 252.812 354.391V366H248.313ZM285.218 366.385C284.008 366.385 282.918 366.17 281.949 365.739C280.988 365.3 280.225 364.654 279.662 363.8C279.107 362.947 278.829 361.894 278.829 360.643C278.829 359.566 279.028 358.675 279.426 357.971C279.823 357.267 280.366 356.703 281.054 356.281C281.742 355.858 282.516 355.539 283.378 355.324C284.248 355.1 285.147 354.938 286.075 354.839C287.194 354.723 288.101 354.619 288.797 354.528C289.493 354.429 289.999 354.279 290.313 354.081C290.637 353.873 290.798 353.554 290.798 353.124V353.049C290.798 352.113 290.521 351.388 289.965 350.874C289.41 350.36 288.611 350.103 287.567 350.103C286.465 350.103 285.59 350.344 284.944 350.824C284.306 351.305 283.875 351.872 283.651 352.527L279.45 351.93C279.782 350.77 280.329 349.801 281.091 349.022C281.853 348.235 282.786 347.647 283.888 347.257C284.99 346.859 286.208 346.661 287.542 346.661C288.461 346.661 289.377 346.768 290.289 346.984C291.2 347.199 292.033 347.555 292.787 348.053C293.541 348.541 294.146 349.208 294.601 350.054C295.065 350.899 295.297 351.955 295.297 353.223V366H290.972V363.377H290.823C290.55 363.908 290.164 364.405 289.667 364.869C289.178 365.325 288.561 365.693 287.815 365.975C287.078 366.249 286.212 366.385 285.218 366.385ZM286.386 363.079C287.289 363.079 288.072 362.901 288.735 362.545C289.398 362.18 289.907 361.7 290.264 361.103C290.628 360.506 290.811 359.856 290.811 359.152V356.902C290.67 357.018 290.429 357.126 290.09 357.225C289.758 357.325 289.385 357.412 288.971 357.486C288.557 357.561 288.147 357.627 287.741 357.685C287.335 357.743 286.982 357.793 286.684 357.834C286.013 357.925 285.412 358.074 284.882 358.282C284.352 358.489 283.933 358.779 283.627 359.152C283.32 359.516 283.167 359.989 283.167 360.569C283.167 361.397 283.469 362.023 284.074 362.445C284.679 362.868 285.45 363.079 286.386 363.079Z" fill="white"/>
        <path d="M519.671 366.485C517.624 366.485 515.868 365.967 514.401 364.931C512.943 363.887 511.82 362.383 511.033 360.419C510.254 358.447 509.864 356.073 509.864 353.298C509.873 350.522 510.266 348.16 511.045 346.213C511.832 344.258 512.955 342.766 514.413 341.739C515.88 340.711 517.632 340.197 519.671 340.197C521.709 340.197 523.462 340.711 524.928 341.739C526.395 342.766 527.518 344.258 528.297 346.213C529.084 348.169 529.477 350.53 529.477 353.298C529.477 356.082 529.084 358.46 528.297 360.432C527.518 362.396 526.395 363.895 524.928 364.931C523.47 365.967 521.717 366.485 519.671 366.485ZM519.671 362.594C521.262 362.594 522.517 361.811 523.437 360.245C524.365 358.671 524.829 356.355 524.829 353.298C524.829 351.276 524.618 349.577 524.195 348.202C523.772 346.826 523.176 345.79 522.405 345.094C521.635 344.39 520.723 344.038 519.671 344.038C518.088 344.038 516.837 344.825 515.917 346.4C514.998 347.966 514.533 350.265 514.525 353.298C514.517 355.328 514.72 357.035 515.134 358.418C515.557 359.802 516.153 360.846 516.924 361.55C517.695 362.246 518.61 362.594 519.671 362.594ZM533.147 361.277V357.61L543.948 340.545H547.005V345.766H545.141L537.87 357.287V357.486H552.946V361.277H533.147ZM545.29 366V360.158L545.34 358.518V340.545H549.69V366H545.29ZM567.358 339.352L559.155 369.828H555.215L563.418 339.352H567.358ZM570.179 366V362.669L579.016 354.006C579.861 353.153 580.566 352.394 581.129 351.732C581.692 351.069 582.115 350.426 582.397 349.805C582.678 349.184 582.819 348.521 582.819 347.816C582.819 347.013 582.637 346.325 582.272 345.753C581.908 345.173 581.407 344.726 580.769 344.411C580.131 344.096 579.406 343.939 578.593 343.939C577.757 343.939 577.023 344.113 576.394 344.461C575.764 344.8 575.275 345.285 574.927 345.915C574.587 346.545 574.417 347.294 574.417 348.164H570.03C570.03 346.549 570.399 345.144 571.136 343.951C571.874 342.758 572.889 341.834 574.181 341.179C575.482 340.525 576.974 340.197 578.656 340.197C580.363 340.197 581.862 340.516 583.155 341.154C584.448 341.792 585.45 342.667 586.163 343.777C586.884 344.887 587.244 346.155 587.244 347.58C587.244 348.533 587.062 349.469 586.697 350.389C586.333 351.309 585.69 352.328 584.771 353.447C583.859 354.565 582.579 355.92 580.93 357.511L576.543 361.973V362.147H587.629V366H570.179ZM600.767 366.348C599.11 366.348 597.626 366.037 596.317 365.416C595.008 364.786 593.968 363.924 593.198 362.831C592.435 361.737 592.029 360.486 591.979 359.077H596.454C596.537 360.121 596.988 360.975 597.809 361.637C598.629 362.292 599.615 362.619 600.767 362.619C601.67 362.619 602.474 362.412 603.178 361.998C603.882 361.584 604.437 361.008 604.843 360.27C605.249 359.533 605.448 358.692 605.44 357.747C605.448 356.786 605.245 355.933 604.831 355.187C604.417 354.441 603.849 353.857 603.128 353.434C602.407 353.003 601.579 352.788 600.642 352.788C599.88 352.78 599.13 352.921 598.393 353.211C597.655 353.501 597.071 353.882 596.64 354.354L592.477 353.67L593.807 340.545H608.572V344.398H597.622L596.889 351.147H597.038C597.51 350.592 598.177 350.132 599.039 349.768C599.901 349.395 600.845 349.208 601.873 349.208C603.414 349.208 604.79 349.573 605.999 350.302C607.209 351.023 608.162 352.017 608.858 353.285C609.554 354.553 609.902 356.003 609.902 357.635C609.902 359.317 609.513 360.817 608.734 362.135C607.963 363.444 606.89 364.475 605.515 365.229C604.147 365.975 602.565 366.348 600.767 366.348Z" fill="white"/>
        <circle cx="553.5" cy="66.5" r="26.5" fill="#EB001B"/>
        <circle cx="585.5" cy="66.5" r="26.5" fill="#FA9B0F"/>
        <circle opacity="0.5" cx="553.5" cy="66.5" r="26.5" fill="#EB001B"/>
    </g>
    <defs>
        <clipPath id="clip0_0_670">
            <rect width="652" height="414" rx="30" fill="white"/>
        </clipPath>
    </defs>
</svg>
