<svg width="370" height="451" viewBox="0 0 370 451" fill="none" xmlns="http://www.w3.org/2000/svg">
<g opacity="0.1" filter="url(#filter0_f_34340_5581)">
<path fill-rule="evenodd" clip-rule="evenodd" d="M77.2769 251.59C83.6966 258.408 88.5141 266.982 91.7295 277.312C94.9448 287.643 97.0233 301.225 97.965 318.059H107.891L102.125 284.825C105.608 293.399 107.971 299.671 109.212 303.642C110.454 307.612 111.557 312.418 112.519 318.059L209.792 329.077L235.708 261.555L215.359 336.213C194.188 332.877 174.119 330.213 155.15 328.222C136.182 326.231 117.12 324.787 97.965 323.89V336.213C126.36 337.818 152.416 340.139 176.134 343.176C199.851 346.213 223.481 350.255 247.023 355.302L272.453 374.272C265.438 352.887 264.193 332.398 268.719 312.806C273.245 293.214 282.688 278.21 297.049 267.796C313.605 259.715 328.422 261.9 341.5 274.351C354.578 286.802 363.14 302.435 367.187 321.249L385.319 392.164C398.285 395.678 418.091 398.072 444.739 399.347C471.386 400.623 501.614 400.623 535.422 399.347L539.7 392.164C522.4 392.506 505.842 391.941 490.026 390.47C474.21 388.998 461.147 386.807 450.838 383.896C488.967 385.046 527.682 384.357 566.983 381.828C606.283 379.299 641.623 375.223 673 369.6C657.299 374.134 639.831 378.21 620.596 381.828C601.361 385.446 581.841 388.326 562.035 390.47L550.47 407.482C525.558 409.435 499.823 410.097 473.266 409.469C446.708 408.841 420.316 406.947 394.09 403.785C391.258 407.177 387.865 409.686 383.912 411.311C379.958 412.936 375.278 413.746 369.872 413.741L320.541 416.397C313.294 416.546 305.848 414.236 298.205 409.469C290.561 404.702 285.056 398.934 281.687 392.164C257.109 379.586 228.254 369.098 195.12 360.701C161.987 352.304 127.523 346.744 91.7295 344.022C75.2934 353.196 59.9492 355.697 45.6968 351.525C31.4445 347.354 20.8545 337.262 13.927 321.249C10.025 311.145 9.03086 301.385 10.9446 291.97C12.8584 282.554 17.5685 274.033 25.0747 266.405C30.1611 253.349 38.4556 245.506 49.9581 242.874C61.4606 240.243 70.5669 243.149 77.2769 251.59ZM324.449 353.794L314.928 356.213L313.827 394.41C318.929 395.083 323.519 394.738 327.599 393.374C331.542 392.055 335.212 389.716 338.607 386.358L338.957 386.006L324.449 353.794ZM306.556 342.671L281.531 353.108C282.677 358.956 284.218 364.092 286.156 368.515C288.094 372.938 290.723 377.322 294.044 381.667L311.482 353.108L306.556 342.671ZM351.653 321.372L327.599 334.719V347.104L351.653 362.169C353.54 354.982 354.484 347.781 354.484 340.565C354.484 333.349 353.54 326.951 351.653 321.372ZM317.709 335.116C314.972 335.116 312.753 337.33 312.753 340.062C312.753 342.794 314.972 345.009 317.709 345.009C320.446 345.009 322.665 342.794 322.665 340.062C322.665 337.33 320.446 335.116 317.709 335.116ZM67.7346 312.285L59.312 315.124L56.7505 339.874C61.8926 340.238 66.5321 339.876 70.6689 338.786C74.6467 337.738 78.2229 336.002 81.3976 333.577L81.7766 333.283L67.7346 312.285ZM296.181 293.053C292.268 297.603 289.076 302.488 286.604 307.71C284.231 312.723 282.578 317.927 281.644 323.323L281.531 323.998L306.694 334.719L311.482 325.684L296.181 293.053ZM48.6399 304.689L26.09 310.309C27.2694 315.025 28.9424 319.059 31.109 322.411C33.1889 325.629 35.7566 328.269 38.8123 330.333L39.1968 330.588L53.5976 311.316L48.6399 304.689ZM316.241 283.986V323.296L324.532 327.621L338.957 296.282C336.183 292.687 332.931 289.881 329.202 287.863C325.473 285.844 321.153 284.552 316.241 283.986ZM93.433 289.808L69.7778 298.742L70.6543 307.573L94.2373 315.632C95.7494 310.712 96.4389 306.118 96.3059 301.85C96.1729 297.581 95.2153 293.567 93.433 289.808ZM60.7268 296.955C57.5989 296.955 55.0633 299.486 55.0633 302.608C55.0633 305.731 57.5989 308.262 60.7268 308.262C63.8547 308.262 66.3903 305.731 66.3903 302.608C66.3903 299.486 63.8547 296.955 60.7268 296.955ZM41.6915 271.405C37.4658 274.352 34.089 277.549 31.561 280.994C29.1302 284.307 27.4456 287.903 26.5071 291.782L26.3981 292.249L50.5488 299.746L55.3046 292.249L41.6915 271.405ZM513.277 241.937C520.527 250.268 525.594 256.351 528.479 260.185C531.365 264.019 534.169 268.398 536.893 273.321L628.802 279.182L540.809 281.185C543.197 287.543 544.01 291.897 543.248 294.245C542.487 296.593 539.847 297.871 535.33 298.079L479.603 294.245L509.942 291.666H466.335L456.215 286.769L515.636 283.398C504.003 282.697 492.826 282.346 482.107 282.346C471.387 282.346 459.972 282.893 447.861 283.986L440.048 279.182L517.075 273.808C500.158 273.173 485.346 273.011 472.64 273.321C459.934 273.63 447.511 274.456 435.372 275.799C434.046 273.765 433.647 272.087 434.174 270.767C434.701 269.447 436.047 268.753 438.211 268.686C457.702 267.855 473.907 267.44 486.824 267.44C499.741 267.44 513.211 267.855 527.233 268.686L513.277 241.937ZM59.6397 265.952L59.164 266.018L60.807 291.211L69.5232 292.956L84.1389 272.8C79.868 269.918 75.6684 267.917 71.54 266.796C67.5704 265.718 63.6036 265.436 59.6397 265.952ZM57.3931 228.777L291.127 237.61L272.437 261.555H256.893L260.142 249.82L72.4313 235.616C58.811 234.107 46.9949 235.708 36.9832 240.42C26.9715 245.132 20.417 252.177 17.3195 261.555C17.2764 253.208 21.2849 245.659 29.3453 238.906C37.4057 232.153 46.755 228.777 57.3931 228.777ZM322.665 165.478C360.575 165.649 396.439 167.617 430.256 171.382C464.072 175.146 497.779 180.923 531.376 188.711C507.667 184.421 484.144 181.222 460.806 179.115C437.468 177.008 408.39 175.457 373.573 174.462L447.441 206.353C477.557 206.665 507.602 208.591 537.578 212.129C567.554 215.667 592.19 220.195 611.487 225.714C583.061 221.38 554.733 218.503 526.501 217.082C498.269 215.661 469.437 215.661 440.007 217.082C420.009 205.917 399.915 195.895 379.725 187.017C359.535 178.138 340.515 170.958 322.665 165.478ZM277.481 166.667C303.985 173.128 324.183 180.613 338.075 189.123C356.085 199.538 365.717 207.212 366.971 212.144C368.224 217.075 364.035 220.027 354.403 220.999C308.999 222.516 270.007 223.286 237.426 223.311L234.153 223.311C231.263 223.308 228.425 223.3 225.639 223.286C190.813 223.106 155.832 221.942 120.697 219.793L129.165 212.144C116.323 211.103 103.362 211.427 90.2789 213.115C77.1964 214.803 64.5692 217.78 52.3974 222.047C63.6255 215.554 76.7365 210.899 91.7306 208.082C106.725 205.266 124.316 204.154 144.504 204.746L132.679 214.878L293.409 212.144C313.806 211.66 326.55 210.031 331.639 207.257C336.728 204.483 335.112 200.047 326.791 193.948C313.218 187.108 300.116 181.661 287.485 177.605C274.855 173.549 259.639 169.903 241.837 166.667C234.952 165.225 227.906 164.904 220.701 165.705C213.496 166.505 201.372 171.087 184.33 179.451L156.104 197.222C157.805 194.565 164.857 188.975 177.261 180.452C189.664 171.93 203.687 165.263 219.328 160.452C231.592 158.135 250.976 160.207 277.481 166.667Z" fill="url(#paint0_linear_34340_5581)"/>
</g>
<defs>
<filter id="filter0_f_34340_5581" x="0" y="-10" width="683" height="683" filterUnits="userSpaceOnUse" color-interpolation-filters="sRGB">
<feFlood flood-opacity="0" result="BackgroundImageFix"/>
<feBlend mode="normal" in="SourceGraphic" in2="BackgroundImageFix" result="shape"/>
<feGaussianBlur stdDeviation="5" result="effect1_foregroundBlur_34340_5581"/>
</filter>
<linearGradient id="paint0_linear_34340_5581" x1="-314.098" y1="287.927" x2="-142.996" y2="729.555" gradientUnits="userSpaceOnUse">
<stop stop-color="#7474BF"/>
<stop offset="1" stop-color="#348AC7"/>
</linearGradient>
</defs>
</svg>
